<svg width="208" height="283" viewBox="0 0 208 283" fill="none" xmlns="http://www.w3.org/2000/svg">
    <rect x="34" y="259" width="136" height="24" fill="#FB6600"/>
    <path d="M193.516 220.63L196.401 236.5L173.5 236.5L172.768 236.5L173.034 237.182L180.82 257.134L143.947 265L101 265L62.0495 265L22.6613 257.122L30.312 235.193L30.5439 234.528L29.8399 234.528L9.11946 234.528L12.9795 216.648L18.4431 203.237L26.8618 190.857L37.4929 183.426L169.818 185.997L181.863 195.791L189.045 208.211L193.516 220.63Z" fill="#FD6801" stroke="#F14F00"/>
    <circle cx="104" cy="104" r="103.5" fill="#FD6700" stroke="#F14F00"/>
    <path d="M176.5 113C176.5 149.687 144.082 179.5 104 179.5C63.9181 179.5 31.5 149.687 31.5 113C31.5 76.3126 63.9181 46.5 104 46.5C144.082 46.5 176.5 76.3126 176.5 113Z" fill="#FD6700" stroke="black"/>
    <path d="M166.5 96C166.5 126.652 157.5 167.5 97.5 160.5C70.1619 160.5 35 146.5 41.5 90C45.0664 59 83 44.0494 107.388 44.0494C134.726 44.0494 166.5 65.3482 166.5 96Z" fill="#8F4E23"/>
    <path d="M147.351 107.126C142.498 138.23 108.704 161.885 94.7891 159.714C80.8741 157.543 51.4996 127.084 56.3519 95.9796C64.0149 69.1135 98.9078 44.3895 112.823 46.5603C126.738 48.731 144.076 80.0724 147.351 107.126Z" fill="#FEDCAA"/>
    <path d="M147 105.214C147 115.5 140.5 130.5 132.5 137.5C120.902 137.5 102.5 123 102.5 105.214C102.5 84.5 131 72.5001 137 75.5C143 78.5 147 91.7415 147 105.214Z" fill="#FBFBFB"/>
    <path d="M103.5 103.5C99.5 130.559 70.5 139.286 67.5 136C57 124.5 55 117.655 55 107.941C55 86 61 83.5 70.5 71.9411C86 74.5 98 84.5589 103.5 103.5Z" fill="#FBFBFB"/>
    <ellipse cx="119.5" cy="106" rx="5.5" ry="5" fill="black"/>
    <ellipse cx="84.5" cy="104" rx="5.5" ry="5" fill="black"/>
    <line x1="33" y1="281" x2="171" y2="281" stroke="black" stroke-width="4" stroke-linecap="round"/>
    <line x1="102.5" y1="208" x2="102.5" y2="265" stroke="black"/>
    <ellipse cx="15.5" cy="244.5" rx="15.5" ry="14.5" fill="#8F4E23"/>
    <path d="M33.5 236.5C33.5 239.749 30.4356 242.5 26.5 242.5C22.5644 242.5 19.5 239.749 19.5 236.5C19.5 233.251 22.5644 230.5 26.5 230.5C30.4356 230.5 33.5 233.251 33.5 236.5Z" fill="#8F4E23" stroke="black"/>
    <ellipse rx="15.5" ry="14.5" transform="matrix(-1 0 0 1 184.5 245.5)" fill="#8F4E23"/>
    <path d="M166.5 237.5C166.5 240.749 169.564 243.5 173.5 243.5C177.436 243.5 180.5 240.749 180.5 237.5C180.5 234.251 177.436 231.5 173.5 231.5C169.564 231.5 166.5 234.251 166.5 237.5Z" fill="#8F4E23" stroke="black"/>
    <line x1="33.5111" y1="235.895" x2="36.5111" y2="221.895" stroke="black"/>
    <line y1="-0.5" x2="14.3178" y2="-0.5" transform="matrix(-0.209529 -0.977802 -0.977802 0.209529 166 236)" stroke="black"/>
    <path d="M96.4415 159.235C91.5 180 85 184.5 79.4415 191.235" stroke="black"/>
    <path d="M96.4634 160.812C109 170 100.524 193.081 111.463 197.812" stroke="black"/>
</svg>